<svg width="98" height="52" fill="none" xmlns="http://www.w3.org/2000/svg">
  <path fill-rule="evenodd" clip-rule="evenodd" d="M36.57.6a1 1 0 0 0-1 1v4.27a1 1 0 0 0 1 1H72.9c10.12 0 18.08 7.8 18.08 17.89 0 .28.23.51.51.51h5.27c.28 0 .51-.23.51-.51A24.13 24.13 0 0 0 72.9.59H36.57ZM7.1 25.71c0-.24-.19-.44-.43-.44h-5.5c-.25 0-.44.2-.44.44 0 13.65 10.22 24.92 23.44 25.66l42.34.04a1 1 0 0 0 1-1v-4.58a1 1 0 0 0-1-1H25.63C15.39 44.8 7.1 36.28 7.1 25.7Z" fill="#6B7B84" stroke="#80949F" stroke-width=".5"/>
  <path fill-rule="evenodd" clip-rule="evenodd" d="M28.14 39.8c2.74 0 5.02-.54 7.27-1.63l.16-.15v-7.83l-.84 1.07a8.32 8.32 0 0 1-6.27 2.75c-4.6 0-9.2-2.96-9.2-8.64a8.76 8.76 0 0 1 9.04-8.84c1.17 0 4.01.28 6.42 2.84l.85 1.04v-7.8l-.15-.14a15.8 15.8 0 0 0-7.3-1.71c-4.57 0-8.14 1.2-10.98 3.67a14.02 14.02 0 0 0-4.8 10.86c0 4.32 1.54 7.7 4.83 10.62 3.06 2.69 6.45 3.88 10.97 3.88Z" fill="#6B7B84"/>
  <path d="M28.14 39.8c2.74 0 5.02-.54 7.27-1.63l.16-.15v-7.83l-.84 1.07a8.32 8.32 0 0 1-6.27 2.75c-4.6 0-9.2-2.96-9.2-8.64a8.76 8.76 0 0 1 9.04-8.84c1.17 0 4.01.28 6.42 2.84l.85 1.04v-7.8l-.15-.14a15.8 15.8 0 0 0-7.3-1.71c-4.57 0-8.14 1.2-10.98 3.67a14.02 14.02 0 0 0-4.8 10.86c0 4.32 1.54 7.7 4.83 10.62 3.06 2.69 6.45 3.88 10.97 3.88" stroke="#80949F" stroke-width=".5"/>
  <path fill-rule="evenodd" clip-rule="evenodd" d="M47.91 17.29h1.37c1.25 0 2.67.07 3.75.8a3.37 3.37 0 0 1 1.41 2.83c0 1.17-.51 2.22-1.37 2.88-1.1.8-2.4.75-3.44.75h-1.72v-7.26Zm3.07 12.53c3.23 0 5.76-.93 7.51-2.69 2.16-2.16 2.49-5.12 2.49-6.69 0-1.67-.4-4.93-3.06-7.3-2.18-1.9-4.5-2.38-7.79-2.38h-8.75v29.03h6.66v-9.97h2.94Z" fill="#6B7B84"/>
  <path d="M47.91 17.29v-.25h-.25v.25h.25Zm5.12.8.15-.2-.15.2Zm.04 5.7.15.21-.15-.2Zm-5.16.76h-.25v.25h.25v-.25Zm10.58 2.58-.17-.18.17.18Zm-.57-13.99.17-.18-.17.18Zm-16.54-2.38v-.25h-.25v.25h.25Zm0 29.03h-.25v.25h.25v-.25Zm6.66 0v.25h.25v-.25h-.25Zm0-9.97v-.25h-.25v.25h.25Zm-.13-12.28h1.37v-.5H47.9v.5Zm1.37 0c1.25 0 2.6.07 3.61.76l.28-.41c-1.15-.79-2.65-.85-3.9-.85v.5Zm3.6.76c.5.34 1.31 1.15 1.31 2.62h.5c0-1.69-.95-2.63-1.51-3.03l-.3.4Zm1.31 2.62c0 1.1-.48 2.07-1.27 2.68l.3.4a3.84 3.84 0 0 0 1.47-3.08h-.5Zm-1.26 2.68c-1.02.73-2.23.7-3.3.7v.5c1.03 0 2.42.05 3.59-.8l-.3-.4Zm-3.3.7h-1.72v.5h1.72v-.5Zm-1.47.25v-7.26h-.5v7.26h.5Zm2.82 5.52c3.28 0 5.88-.95 7.7-2.76l-.36-.36c-1.7 1.7-4.16 2.62-7.34 2.62v.5Zm7.7-2.76c2.22-2.23 2.55-5.28 2.55-6.87h-.5c0 1.55-.32 4.43-2.41 6.51l.35.36Zm2.55-6.87c0-1.7-.4-5.05-3.14-7.48l-.33.37c2.58 2.3 2.97 5.47 2.97 7.11h.5Zm-3.14-7.48c-2.25-1.97-4.65-2.45-7.96-2.45v.5c3.26 0 5.51.47 7.63 2.32l.33-.37Zm-7.96-2.45h-8.75v.5h8.75v-.5Zm-9 .25v29.03h.5V10.76h-.5Zm.25 29.28h6.66v-.5h-6.66v.5Zm6.9-.25v-9.97h-.5v9.97h.5Zm-.24-9.72h2.94v-.5h-2.94v.5Z" fill="#80949F"/>
  <path fill-rule="evenodd" clip-rule="evenodd" d="M80.95 24.47c-1.44-1.28-3.47-2.03-5.76-2.8-1.63-.57-2.53-.88-3.13-1.43-.48-.4-.69-.84-.69-1.41 0-1.27.86-2.62 3.27-2.62 1.64 0 3.01.7 4.08 2.08l.42.55 3.52-4.47-.32-.33a11.31 11.31 0 0 0-8.2-3.28c-6.47 0-9.37 4.21-9.37 8.39 0 2.24.8 4.05 2.37 5.37 1.4 1.2 3.12 1.88 4.77 2.43l.18.06c1.46.49 2.97.99 3.88 1.8.63.57.9 1.2.9 2.03 0 1.9-1.5 3.17-3.72 3.17a5.94 5.94 0 0 1-5.3-3.28l-.32-.63-4.37 4.04.25.37a12.03 12.03 0 0 0 9.95 5.28c5.96 0 10.12-3.83 10.12-9.31 0-3.14-1.37-5-2.53-6.01Z" fill="#6B7B84"/>
  <path d="M80.95 24.47c-1.44-1.28-3.47-2.03-5.76-2.8-1.63-.57-2.53-.88-3.13-1.43-.48-.4-.69-.84-.69-1.41 0-1.27.86-2.62 3.27-2.62 1.64 0 3.01.7 4.08 2.08l.42.55 3.52-4.47-.32-.33a11.31 11.31 0 0 0-8.2-3.28c-6.47 0-9.37 4.21-9.37 8.39 0 2.24.8 4.05 2.37 5.37 1.4 1.2 3.12 1.88 4.77 2.43l.18.06c1.46.49 2.97.99 3.88 1.8.63.57.9 1.2.9 2.03 0 1.9-1.5 3.17-3.72 3.17a5.94 5.94 0 0 1-5.3-3.28l-.32-.63-4.37 4.04.25.37a12.03 12.03 0 0 0 9.95 5.28c5.96 0 10.12-3.83 10.12-9.31 0-3.14-1.37-5-2.53-6.01" stroke="#80949F" stroke-width=".5"/>
</svg>
